<?xml version="1.0" encoding="UTF-8" standalone="no"?>
<!DOCTYPE svg PUBLIC "-//W3C//DTD SVG 1.1//EN"
 "http://www.w3.org/Graphics/SVG/1.1/DTD/svg11.dtd">
<!-- Generated by graphviz version 2.40.1 (20161225.0304)
 -->
<!-- Title: dependencies Pages: 1 -->
<svg width="2461pt" height="284pt"
 viewBox="0.00 0.00 2461.00 284.00" xmlns="http://www.w3.org/2000/svg" xmlns:xlink="http://www.w3.org/1999/xlink">
<g id="graph0" class="graph" transform="scale(1 1) rotate(0) translate(4 280)">
<title>dependencies</title>
<polygon fill="#ffffff" stroke="transparent" points="-4,4 -4,-280 2457,-280 2457,4 -4,4"/>
<text text-anchor="start" x="1205.5091" y="-42.4" font-family="sans-serif" font-weight="bold" font-size="14.00" fill="#000000">Legend</text>
<polygon fill="#ffffb3" stroke="transparent" points="992.5,-10 992.5,-30 1012.5,-30 1012.5,-10 992.5,-10"/>
<text text-anchor="start" x="1016.129" y="-15.4" font-family="sans-serif" font-size="14.00" fill="#000000"> &#160;Declarations</text>
<polygon fill="#8dd3c7" stroke="transparent" points="1105.5,-10 1105.5,-30 1125.5,-30 1125.5,-10 1105.5,-10"/>
<text text-anchor="start" x="1129.2251" y="-15.4" font-family="sans-serif" font-size="14.00" fill="#000000"> &#160;Module</text>
<polygon fill="#80b1d3" stroke="transparent" points="1191.5,-10 1191.5,-30 1211.5,-30 1211.5,-10 1191.5,-10"/>
<text text-anchor="start" x="1215.2812" y="-15.4" font-family="sans-serif" font-size="14.00" fill="#000000"> &#160;Bootstrap</text>
<polygon fill="#fdb462" stroke="transparent" points="1288.5,-10 1288.5,-30 1308.5,-30 1308.5,-10 1288.5,-10"/>
<text text-anchor="start" x="1312.1732" y="-15.4" font-family="sans-serif" font-size="14.00" fill="#000000"> &#160;Providers</text>
<polygon fill="#fb8072" stroke="transparent" points="1384.5,-10 1384.5,-30 1404.5,-30 1404.5,-10 1384.5,-10"/>
<text text-anchor="start" x="1408.2258" y="-15.4" font-family="sans-serif" font-size="14.00" fill="#000000"> &#160;Exports</text>
<g id="clust1" class="cluster">
<title>cluster_AppModule</title>
<polygon fill="none" stroke="#000000" stroke-dasharray="1,5" points="8,-70 8,-268 2445,-268 2445,-70 8,-70"/>
</g>
<g id="clust2" class="cluster">
<title>cluster_AppModule_declarations</title>
<polygon fill="none" stroke="#000000" points="399,-78 399,-130 2437,-130 2437,-78 399,-78"/>
</g>
<g id="clust16" class="cluster">
<title>cluster_AppModule_imports</title>
<polygon fill="none" stroke="#000000" points="122,-78 122,-130 391,-130 391,-78 122,-78"/>
</g>
<g id="clust18" class="cluster">
<title>cluster_AppModule_bootstrap</title>
<polygon fill="none" stroke="#000000" points="1117,-208 1117,-260 1241,-260 1241,-208 1117,-208"/>
</g>
<g id="clust19" class="cluster">
<title>cluster_AppModule_providers</title>
<polygon fill="none" stroke="#000000" points="16,-78 16,-130 114,-130 114,-78 16,-78"/>
</g>
<!-- AppComponent -->
<g id="node1" class="node">
<title>AppComponent</title>
<polygon fill="#ffffb3" stroke="#000000" points="2428.9399,-122 2323.0601,-122 2323.0601,-86 2428.9399,-86 2428.9399,-122"/>
<text text-anchor="middle" x="2376" y="-99.8" font-family="Times,serif" font-size="14.00" fill="#000000">AppComponent</text>
</g>
<!-- AppModule -->
<g id="node14" class="node">
<title>AppModule</title>
<polygon fill="#8dd3c7" stroke="#000000" points="1220.6571,-187 1217.6571,-191 1196.6571,-191 1193.6571,-187 1137.3429,-187 1137.3429,-151 1220.6571,-151 1220.6571,-187"/>
<text text-anchor="middle" x="1179" y="-164.8" font-family="Times,serif" font-size="14.00" fill="#000000">AppModule</text>
</g>
<!-- AppComponent&#45;&gt;AppModule -->
<g id="edge1" class="edge">
<title>AppComponent&#45;&gt;AppModule</title>
<path fill="none" stroke="#000000" d="M2376,-122.3228C2376,-145.6602 2376,-183 2376,-183 2376,-183 1230.9,-183 1230.9,-183"/>
<polygon fill="#000000" stroke="#000000" points="1230.9,-179.5001 1220.9,-183 1230.9,-186.5001 1230.9,-179.5001"/>
</g>
<!-- CollaboratoryComponent -->
<g id="node2" class="node">
<title>CollaboratoryComponent</title>
<polygon fill="#ffffb3" stroke="#000000" points="2305.5912,-122 2146.4088,-122 2146.4088,-86 2305.5912,-86 2305.5912,-122"/>
<text text-anchor="middle" x="2226" y="-99.8" font-family="Times,serif" font-size="14.00" fill="#000000">CollaboratoryComponent</text>
</g>
<!-- CollaboratoryComponent&#45;&gt;AppModule -->
<g id="edge2" class="edge">
<title>CollaboratoryComponent&#45;&gt;AppModule</title>
<path fill="none" stroke="#000000" d="M2226,-122.2921C2226,-144.2057 2226,-178 2226,-178 2226,-178 1230.6897,-178 1230.6897,-178"/>
<polygon fill="#000000" stroke="#000000" points="1230.6898,-174.5001 1220.6897,-178 1230.6897,-181.5001 1230.6898,-174.5001"/>
</g>
<!-- CollaboratoryDetailComponent -->
<g id="node3" class="node">
<title>CollaboratoryDetailComponent</title>
<polygon fill="#ffffb3" stroke="#000000" points="2128.799,-122 1935.201,-122 1935.201,-86 2128.799,-86 2128.799,-122"/>
<text text-anchor="middle" x="2032" y="-99.8" font-family="Times,serif" font-size="14.00" fill="#000000">CollaboratoryDetailComponent</text>
</g>
<!-- CollaboratoryDetailComponent&#45;&gt;AppModule -->
<g id="edge3" class="edge">
<title>CollaboratoryDetailComponent&#45;&gt;AppModule</title>
<path fill="none" stroke="#000000" d="M2032,-122.0267C2032,-142.7672 2032,-174 2032,-174 2032,-174 1230.7194,-174 1230.7194,-174"/>
<polygon fill="#000000" stroke="#000000" points="1230.7194,-170.5001 1220.7194,-174 1230.7194,-177.5001 1230.7194,-170.5001"/>
</g>
<!-- ContributorsComponent -->
<g id="node4" class="node">
<title>ContributorsComponent</title>
<polygon fill="#ffffb3" stroke="#000000" points="1917.1066,-122 1764.8934,-122 1764.8934,-86 1917.1066,-86 1917.1066,-122"/>
<text text-anchor="middle" x="1841" y="-99.8" font-family="Times,serif" font-size="14.00" fill="#000000">ContributorsComponent</text>
</g>
<!-- ContributorsComponent&#45;&gt;AppModule -->
<g id="edge4" class="edge">
<title>ContributorsComponent&#45;&gt;AppModule</title>
<path fill="none" stroke="#000000" d="M1841,-122.1061C1841,-141.3391 1841,-169 1841,-169 1841,-169 1230.6618,-169 1230.6618,-169"/>
<polygon fill="#000000" stroke="#000000" points="1230.6619,-165.5001 1220.6618,-169 1230.6618,-172.5001 1230.6619,-165.5001"/>
</g>
<!-- FooterComponent -->
<g id="node5" class="node">
<title>FooterComponent</title>
<polygon fill="#ffffb3" stroke="#000000" points="1746.8809,-122 1629.1191,-122 1629.1191,-86 1746.8809,-86 1746.8809,-122"/>
<text text-anchor="middle" x="1688" y="-99.8" font-family="Times,serif" font-size="14.00" fill="#000000">FooterComponent</text>
</g>
<!-- FooterComponent&#45;&gt;AppModule -->
<g id="edge5" class="edge">
<title>FooterComponent&#45;&gt;AppModule</title>
<path fill="none" stroke="#000000" d="M1688,-122.302C1688,-140.2699 1688,-165 1688,-165 1688,-165 1231.0866,-165 1231.0866,-165"/>
<polygon fill="#000000" stroke="#000000" points="1231.0867,-161.5001 1221.0866,-165 1231.0866,-168.5001 1231.0867,-161.5001"/>
</g>
<!-- HeaderComponent -->
<g id="node6" class="node">
<title>HeaderComponent</title>
<polygon fill="#ffffb3" stroke="#000000" points="1610.7437,-122 1489.2563,-122 1489.2563,-86 1610.7437,-86 1610.7437,-122"/>
<text text-anchor="middle" x="1550" y="-99.8" font-family="Times,serif" font-size="14.00" fill="#000000">HeaderComponent</text>
</g>
<!-- HeaderComponent&#45;&gt;AppModule -->
<g id="edge6" class="edge">
<title>HeaderComponent&#45;&gt;AppModule</title>
<path fill="none" stroke="#000000" d="M1550,-122.027C1550,-138.3976 1550,-160 1550,-160 1550,-160 1230.8372,-160 1230.8372,-160"/>
<polygon fill="#000000" stroke="#000000" points="1230.8373,-156.5001 1220.8372,-160 1230.8372,-163.5001 1230.8373,-156.5001"/>
</g>
<!-- HeaderLoginComponent -->
<g id="node7" class="node">
<title>HeaderLoginComponent</title>
<polygon fill="#ffffb3" stroke="#000000" points="1471.6867,-122 1316.3133,-122 1316.3133,-86 1471.6867,-86 1471.6867,-122"/>
<text text-anchor="middle" x="1394" y="-99.8" font-family="Times,serif" font-size="14.00" fill="#000000">HeaderLoginComponent</text>
</g>
<!-- HeaderLoginComponent&#45;&gt;AppModule -->
<g id="edge7" class="edge">
<title>HeaderLoginComponent&#45;&gt;AppModule</title>
<path fill="none" stroke="#000000" d="M1394,-122.1871C1394,-137.1824 1394,-156 1394,-156 1394,-156 1230.7091,-156 1230.7091,-156"/>
<polygon fill="#000000" stroke="#000000" points="1230.7091,-152.5001 1220.7091,-156 1230.7091,-159.5001 1230.7091,-152.5001"/>
</g>
<!-- HomeComponent -->
<g id="node8" class="node">
<title>HomeComponent</title>
<polygon fill="#ffffb3" stroke="#000000" points="1298.5451,-122 1183.4549,-122 1183.4549,-86 1298.5451,-86 1298.5451,-122"/>
<text text-anchor="middle" x="1241" y="-99.8" font-family="Times,serif" font-size="14.00" fill="#000000">HomeComponent</text>
</g>
<!-- HomeComponent&#45;&gt;AppModule -->
<g id="edge8" class="edge">
<title>HomeComponent&#45;&gt;AppModule</title>
<path fill="none" stroke="#000000" d="M1202.028,-122.1061C1202.028,-122.1061 1202.028,-140.991 1202.028,-140.991"/>
<polygon fill="#000000" stroke="#000000" points="1198.5281,-140.9909 1202.028,-150.991 1205.5281,-140.991 1198.5281,-140.9909"/>
</g>
<!-- KfComponent -->
<g id="node9" class="node">
<title>KfComponent</title>
<polygon fill="#ffffb3" stroke="#000000" points="1165.0997,-122 1068.9003,-122 1068.9003,-86 1165.0997,-86 1165.0997,-122"/>
<text text-anchor="middle" x="1117" y="-99.8" font-family="Times,serif" font-size="14.00" fill="#000000">KfComponent</text>
</g>
<!-- KfComponent&#45;&gt;AppModule -->
<g id="edge9" class="edge">
<title>KfComponent&#45;&gt;AppModule</title>
<path fill="none" stroke="#000000" d="M1151.1108,-122.1061C1151.1108,-122.1061 1151.1108,-140.991 1151.1108,-140.991"/>
<polygon fill="#000000" stroke="#000000" points="1147.6109,-140.9909 1151.1108,-150.991 1154.6109,-140.991 1147.6109,-140.9909"/>
</g>
<!-- PageNotFoundComponent -->
<g id="node10" class="node">
<title>PageNotFoundComponent</title>
<polygon fill="#ffffb3" stroke="#000000" points="1050.8243,-122 885.1757,-122 885.1757,-86 1050.8243,-86 1050.8243,-122"/>
<text text-anchor="middle" x="968" y="-99.8" font-family="Times,serif" font-size="14.00" fill="#000000">PageNotFoundComponent</text>
</g>
<!-- PageNotFoundComponent&#45;&gt;AppModule -->
<g id="edge10" class="edge">
<title>PageNotFoundComponent&#45;&gt;AppModule</title>
<path fill="none" stroke="#000000" d="M968,-122.1871C968,-137.1824 968,-156 968,-156 968,-156 1127.3132,-156 1127.3132,-156"/>
<polygon fill="#000000" stroke="#000000" points="1127.3132,-159.5001 1137.3132,-156 1127.3132,-152.5001 1127.3132,-159.5001"/>
</g>
<!-- PostCollaboratoryComponent -->
<g id="node11" class="node">
<title>PostCollaboratoryComponent</title>
<polygon fill="#ffffb3" stroke="#000000" points="867.7091,-122 684.2909,-122 684.2909,-86 867.7091,-86 867.7091,-122"/>
<text text-anchor="middle" x="776" y="-99.8" font-family="Times,serif" font-size="14.00" fill="#000000">PostCollaboratoryComponent</text>
</g>
<!-- PostCollaboratoryComponent&#45;&gt;AppModule -->
<g id="edge11" class="edge">
<title>PostCollaboratoryComponent&#45;&gt;AppModule</title>
<path fill="none" stroke="#000000" d="M776,-122.027C776,-138.3976 776,-160 776,-160 776,-160 1127.0124,-160 1127.0124,-160"/>
<polygon fill="#000000" stroke="#000000" points="1127.0124,-163.5001 1137.0124,-160 1127.0124,-156.5001 1127.0124,-163.5001"/>
</g>
<!-- RbiComponent -->
<g id="node12" class="node">
<title>RbiComponent</title>
<polygon fill="#ffffb3" stroke="#000000" points="666.5606,-122 565.4394,-122 565.4394,-86 666.5606,-86 666.5606,-122"/>
<text text-anchor="middle" x="616" y="-99.8" font-family="Times,serif" font-size="14.00" fill="#000000">RbiComponent</text>
</g>
<!-- RbiComponent&#45;&gt;AppModule -->
<g id="edge12" class="edge">
<title>RbiComponent&#45;&gt;AppModule</title>
<path fill="none" stroke="#000000" d="M616,-122.302C616,-140.2699 616,-165 616,-165 616,-165 1127.1435,-165 1127.1435,-165"/>
<polygon fill="#000000" stroke="#000000" points="1127.1435,-168.5001 1137.1435,-165 1127.1434,-161.5001 1127.1435,-168.5001"/>
</g>
<!-- SearchBarComponent -->
<g id="node13" class="node">
<title>SearchBarComponent</title>
<polygon fill="#ffffb3" stroke="#000000" points="546.6317,-122 407.3683,-122 407.3683,-86 546.6317,-86 546.6317,-122"/>
<text text-anchor="middle" x="477" y="-99.8" font-family="Times,serif" font-size="14.00" fill="#000000">SearchBarComponent</text>
</g>
<!-- SearchBarComponent&#45;&gt;AppModule -->
<g id="edge13" class="edge">
<title>SearchBarComponent&#45;&gt;AppModule</title>
<path fill="none" stroke="#000000" d="M477,-122.1061C477,-141.3391 477,-169 477,-169 477,-169 1127.189,-169 1127.189,-169"/>
<polygon fill="#000000" stroke="#000000" points="1127.189,-172.5001 1137.189,-169 1127.189,-165.5001 1127.189,-172.5001"/>
</g>
<!-- AppComponent  -->
<g id="node17" class="node">
<title>AppComponent </title>
<polygon fill="#80b1d3" stroke="#000000" points="1233.439,-252 1124.561,-252 1124.561,-216 1233.439,-216 1233.439,-252"/>
<text text-anchor="middle" x="1179" y="-229.8" font-family="Times,serif" font-size="14.00" fill="#000000">AppComponent </text>
</g>
<!-- AppModule&#45;&gt;AppComponent  -->
<g id="edge16" class="edge">
<title>AppModule&#45;&gt;AppComponent </title>
<path fill="none" stroke="#000000" stroke-dasharray="1,5" d="M1179,-187.1061C1179,-187.1061 1179,-205.991 1179,-205.991"/>
<polygon fill="#000000" stroke="#000000" points="1175.5001,-205.9909 1179,-215.991 1182.5001,-205.991 1175.5001,-205.9909"/>
</g>
<!-- AccountModule -->
<g id="node15" class="node">
<title>AccountModule</title>
<polygon fill="#8dd3c7" stroke="#000000" points="383.4762,-122 380.4762,-126 359.4762,-126 356.4762,-122 276.5238,-122 276.5238,-86 383.4762,-86 383.4762,-122"/>
<text text-anchor="middle" x="330" y="-99.8" font-family="Times,serif" font-size="14.00" fill="#000000">AccountModule</text>
</g>
<!-- AccountModule&#45;&gt;AppModule -->
<g id="edge14" class="edge">
<title>AccountModule&#45;&gt;AppModule</title>
<path fill="none" stroke="#000000" d="M330,-122.0267C330,-142.7672 330,-174 330,-174 330,-174 1127.1875,-174 1127.1875,-174"/>
<polygon fill="#000000" stroke="#000000" points="1127.1876,-177.5001 1137.1875,-174 1127.1875,-170.5001 1127.1876,-177.5001"/>
</g>
<!-- AppRoutingModule -->
<g id="node16" class="node">
<title>AppRoutingModule</title>
<polygon fill="#8dd3c7" stroke="#000000" points="258.2744,-122 255.2744,-126 234.2744,-126 231.2744,-122 129.7256,-122 129.7256,-86 258.2744,-86 258.2744,-122"/>
<text text-anchor="middle" x="194" y="-99.8" font-family="Times,serif" font-size="14.00" fill="#000000">AppRoutingModule</text>
</g>
<!-- AppRoutingModule&#45;&gt;AppModule -->
<g id="edge15" class="edge">
<title>AppRoutingModule&#45;&gt;AppModule</title>
<path fill="none" stroke="#000000" d="M194,-122.2921C194,-144.2057 194,-178 194,-178 194,-178 1127.3049,-178 1127.3049,-178"/>
<polygon fill="#000000" stroke="#000000" points="1127.305,-181.5001 1137.3049,-178 1127.3049,-174.5001 1127.305,-181.5001"/>
</g>
<!-- Storage -->
<g id="node18" class="node">
<title>Storage</title>
<ellipse fill="#fdb462" stroke="#000000" cx="65" cy="-104" rx="40.5673" ry="18"/>
<text text-anchor="middle" x="65" y="-99.8" font-family="Times,serif" font-size="14.00" fill="#000000">Storage</text>
</g>
<!-- Storage&#45;&gt;AppModule -->
<g id="edge17" class="edge">
<title>Storage&#45;&gt;AppModule</title>
<path fill="none" stroke="#000000" d="M65,-122.3228C65,-145.6602 65,-183 65,-183 65,-183 1127.0272,-183 1127.0272,-183"/>
<polygon fill="#000000" stroke="#000000" points="1127.0273,-186.5001 1137.0272,-183 1127.0272,-179.5001 1127.0273,-186.5001"/>
</g>
</g>
</svg>
