<?xml version="1.0" encoding="UTF-8" standalone="no"?>
<!DOCTYPE svg PUBLIC "-//W3C//DTD SVG 1.1//EN"
 "http://www.w3.org/Graphics/SVG/1.1/DTD/svg11.dtd">
<!-- Generated by graphviz version 2.40.1 (20161225.0304)
 -->
<!-- Title: dependencies Pages: 1 -->
<svg width="2653pt" height="284pt"
 viewBox="0.00 0.00 2653.00 284.00" xmlns="http://www.w3.org/2000/svg" xmlns:xlink="http://www.w3.org/1999/xlink">
<g id="graph0" class="graph" transform="scale(1 1) rotate(0) translate(4 280)">
<title>dependencies</title>
<polygon fill="#ffffff" stroke="transparent" points="-4,4 -4,-280 2649,-280 2649,4 -4,4"/>
<text text-anchor="start" x="1301.5091" y="-42.4" font-family="sans-serif" font-weight="bold" font-size="14.00" fill="#000000">Legend</text>
<polygon fill="#ffffb3" stroke="transparent" points="1088.5,-10 1088.5,-30 1108.5,-30 1108.5,-10 1088.5,-10"/>
<text text-anchor="start" x="1112.129" y="-15.4" font-family="sans-serif" font-size="14.00" fill="#000000"> &#160;Declarations</text>
<polygon fill="#8dd3c7" stroke="transparent" points="1201.5,-10 1201.5,-30 1221.5,-30 1221.5,-10 1201.5,-10"/>
<text text-anchor="start" x="1225.2251" y="-15.4" font-family="sans-serif" font-size="14.00" fill="#000000"> &#160;Module</text>
<polygon fill="#80b1d3" stroke="transparent" points="1287.5,-10 1287.5,-30 1307.5,-30 1307.5,-10 1287.5,-10"/>
<text text-anchor="start" x="1311.2812" y="-15.4" font-family="sans-serif" font-size="14.00" fill="#000000"> &#160;Bootstrap</text>
<polygon fill="#fdb462" stroke="transparent" points="1384.5,-10 1384.5,-30 1404.5,-30 1404.5,-10 1384.5,-10"/>
<text text-anchor="start" x="1408.1732" y="-15.4" font-family="sans-serif" font-size="14.00" fill="#000000"> &#160;Providers</text>
<polygon fill="#fb8072" stroke="transparent" points="1480.5,-10 1480.5,-30 1500.5,-30 1500.5,-10 1480.5,-10"/>
<text text-anchor="start" x="1504.2258" y="-15.4" font-family="sans-serif" font-size="14.00" fill="#000000"> &#160;Exports</text>
<g id="clust1" class="cluster">
<title>cluster_AppModule</title>
<polygon fill="none" stroke="#000000" stroke-dasharray="1,5" points="8,-70 8,-268 2637,-268 2637,-70 8,-70"/>
</g>
<g id="clust2" class="cluster">
<title>cluster_AppModule_declarations</title>
<polygon fill="none" stroke="#000000" points="399,-78 399,-130 2629,-130 2629,-78 399,-78"/>
</g>
<g id="clust17" class="cluster">
<title>cluster_AppModule_imports</title>
<polygon fill="none" stroke="#000000" points="122,-78 122,-130 391,-130 391,-78 122,-78"/>
</g>
<g id="clust19" class="cluster">
<title>cluster_AppModule_bootstrap</title>
<polygon fill="none" stroke="#000000" points="1179,-208 1179,-260 1303,-260 1303,-208 1179,-208"/>
</g>
<g id="clust20" class="cluster">
<title>cluster_AppModule_providers</title>
<polygon fill="none" stroke="#000000" points="16,-78 16,-130 114,-130 114,-78 16,-78"/>
</g>
<!-- AppComponent -->
<g id="node1" class="node">
<title>AppComponent</title>
<polygon fill="#ffffb3" stroke="#000000" points="2620.9399,-122 2515.0601,-122 2515.0601,-86 2620.9399,-86 2620.9399,-122"/>
<text text-anchor="middle" x="2568" y="-99.8" font-family="Times,serif" font-size="14.00" fill="#000000">AppComponent</text>
</g>
<!-- AppModule -->
<g id="node15" class="node">
<title>AppModule</title>
<polygon fill="#8dd3c7" stroke="#000000" points="1282.6571,-187 1279.6571,-191 1258.6571,-191 1255.6571,-187 1199.3429,-187 1199.3429,-151 1282.6571,-151 1282.6571,-187"/>
<text text-anchor="middle" x="1241" y="-164.8" font-family="Times,serif" font-size="14.00" fill="#000000">AppModule</text>
</g>
<!-- AppComponent&#45;&gt;AppModule -->
<g id="edge1" class="edge">
<title>AppComponent&#45;&gt;AppModule</title>
<path fill="none" stroke="#000000" d="M2568,-122.3228C2568,-145.6602 2568,-183 2568,-183 2568,-183 1292.9062,-183 1292.9062,-183"/>
<polygon fill="#000000" stroke="#000000" points="1292.9062,-179.5001 1282.9062,-183 1292.9061,-186.5001 1292.9062,-179.5001"/>
</g>
<!-- CollaboratoryComponent -->
<g id="node2" class="node">
<title>CollaboratoryComponent</title>
<polygon fill="#ffffb3" stroke="#000000" points="2497.5912,-122 2338.4088,-122 2338.4088,-86 2497.5912,-86 2497.5912,-122"/>
<text text-anchor="middle" x="2418" y="-99.8" font-family="Times,serif" font-size="14.00" fill="#000000">CollaboratoryComponent</text>
</g>
<!-- CollaboratoryComponent&#45;&gt;AppModule -->
<g id="edge2" class="edge">
<title>CollaboratoryComponent&#45;&gt;AppModule</title>
<path fill="none" stroke="#000000" d="M2418,-122.1554C2418,-144.3519 2418,-179 2418,-179 2418,-179 1292.8901,-179 1292.8901,-179"/>
<polygon fill="#000000" stroke="#000000" points="1292.8901,-175.5001 1282.8901,-179 1292.89,-182.5001 1292.8901,-175.5001"/>
</g>
<!-- CollaboratoryDetailComponent -->
<g id="node3" class="node">
<title>CollaboratoryDetailComponent</title>
<polygon fill="#ffffb3" stroke="#000000" points="2320.799,-122 2127.201,-122 2127.201,-86 2320.799,-86 2320.799,-122"/>
<text text-anchor="middle" x="2224" y="-99.8" font-family="Times,serif" font-size="14.00" fill="#000000">CollaboratoryDetailComponent</text>
</g>
<!-- CollaboratoryDetailComponent&#45;&gt;AppModule -->
<g id="edge3" class="edge">
<title>CollaboratoryDetailComponent&#45;&gt;AppModule</title>
<path fill="none" stroke="#000000" d="M2224,-122.2843C2224,-143.3211 2224,-175 2224,-175 2224,-175 1292.9238,-175 1292.9238,-175"/>
<polygon fill="#000000" stroke="#000000" points="1292.9239,-171.5001 1282.9238,-175 1292.9238,-178.5001 1292.9239,-171.5001"/>
</g>
<!-- ContributorsComponent -->
<g id="node4" class="node">
<title>ContributorsComponent</title>
<polygon fill="#ffffb3" stroke="#000000" points="2109.1066,-122 1956.8934,-122 1956.8934,-86 2109.1066,-86 2109.1066,-122"/>
<text text-anchor="middle" x="2033" y="-99.8" font-family="Times,serif" font-size="14.00" fill="#000000">ContributorsComponent</text>
</g>
<!-- ContributorsComponent&#45;&gt;AppModule -->
<g id="edge4" class="edge">
<title>ContributorsComponent&#45;&gt;AppModule</title>
<path fill="none" stroke="#000000" d="M2033,-122.308C2033,-142.1455 2033,-171 2033,-171 2033,-171 1292.7438,-171 1292.7438,-171"/>
<polygon fill="#000000" stroke="#000000" points="1292.7438,-167.5001 1282.7438,-171 1292.7438,-174.5001 1292.7438,-167.5001"/>
</g>
<!-- CreateChallengeComponent -->
<g id="node5" class="node">
<title>CreateChallengeComponent</title>
<polygon fill="#ffffb3" stroke="#000000" points="1939.126,-122 1764.874,-122 1764.874,-86 1939.126,-86 1939.126,-122"/>
<text text-anchor="middle" x="1852" y="-99.8" font-family="Times,serif" font-size="14.00" fill="#000000">CreateChallengeComponent</text>
</g>
<!-- CreateChallengeComponent&#45;&gt;AppModule -->
<g id="edge5" class="edge">
<title>CreateChallengeComponent&#45;&gt;AppModule</title>
<path fill="none" stroke="#000000" d="M1852,-122.2222C1852,-140.8285 1852,-167 1852,-167 1852,-167 1292.9965,-167 1292.9965,-167"/>
<polygon fill="#000000" stroke="#000000" points="1292.9965,-163.5001 1282.9965,-167 1292.9965,-170.5001 1292.9965,-163.5001"/>
</g>
<!-- FooterComponent -->
<g id="node6" class="node">
<title>FooterComponent</title>
<polygon fill="#ffffb3" stroke="#000000" points="1746.8809,-122 1629.1191,-122 1629.1191,-86 1746.8809,-86 1746.8809,-122"/>
<text text-anchor="middle" x="1688" y="-99.8" font-family="Times,serif" font-size="14.00" fill="#000000">FooterComponent</text>
</g>
<!-- FooterComponent&#45;&gt;AppModule -->
<g id="edge6" class="edge">
<title>FooterComponent&#45;&gt;AppModule</title>
<path fill="none" stroke="#000000" d="M1688,-122.0225C1688,-139.3734 1688,-163 1688,-163 1688,-163 1293.0527,-163 1293.0527,-163"/>
<polygon fill="#000000" stroke="#000000" points="1293.0527,-159.5001 1283.0527,-163 1293.0526,-166.5001 1293.0527,-159.5001"/>
</g>
<!-- HeaderComponent -->
<g id="node7" class="node">
<title>HeaderComponent</title>
<polygon fill="#ffffb3" stroke="#000000" points="1610.7437,-122 1489.2563,-122 1489.2563,-86 1610.7437,-86 1610.7437,-122"/>
<text text-anchor="middle" x="1550" y="-99.8" font-family="Times,serif" font-size="14.00" fill="#000000">HeaderComponent</text>
</g>
<!-- HeaderComponent&#45;&gt;AppModule -->
<g id="edge7" class="edge">
<title>HeaderComponent&#45;&gt;AppModule</title>
<path fill="none" stroke="#000000" d="M1550,-122.0091C1550,-138.0494 1550,-159 1550,-159 1550,-159 1292.6731,-159 1292.6731,-159"/>
<polygon fill="#000000" stroke="#000000" points="1292.6731,-155.5001 1282.6731,-159 1292.6731,-162.5001 1292.6731,-155.5001"/>
</g>
<!-- HeaderLoginComponent -->
<g id="node8" class="node">
<title>HeaderLoginComponent</title>
<polygon fill="#ffffb3" stroke="#000000" points="1471.6867,-122 1316.3133,-122 1316.3133,-86 1471.6867,-86 1471.6867,-122"/>
<text text-anchor="middle" x="1394" y="-99.8" font-family="Times,serif" font-size="14.00" fill="#000000">HeaderLoginComponent</text>
</g>
<!-- HeaderLoginComponent&#45;&gt;AppModule -->
<g id="edge8" class="edge">
<title>HeaderLoginComponent&#45;&gt;AppModule</title>
<path fill="none" stroke="#000000" d="M1394,-122.1243C1394,-136.7832 1394,-155 1394,-155 1394,-155 1292.8079,-155 1292.8079,-155"/>
<polygon fill="#000000" stroke="#000000" points="1292.808,-151.5001 1282.8079,-155 1292.8079,-158.5001 1292.808,-151.5001"/>
</g>
<!-- HomeComponent -->
<g id="node9" class="node">
<title>HomeComponent</title>
<polygon fill="#ffffb3" stroke="#000000" points="1298.5451,-122 1183.4549,-122 1183.4549,-86 1298.5451,-86 1298.5451,-122"/>
<text text-anchor="middle" x="1241" y="-99.8" font-family="Times,serif" font-size="14.00" fill="#000000">HomeComponent</text>
</g>
<!-- HomeComponent&#45;&gt;AppModule -->
<g id="edge9" class="edge">
<title>HomeComponent&#45;&gt;AppModule</title>
<path fill="none" stroke="#000000" d="M1241,-122.1061C1241,-122.1061 1241,-140.991 1241,-140.991"/>
<polygon fill="#000000" stroke="#000000" points="1237.5001,-140.9909 1241,-150.991 1244.5001,-140.991 1237.5001,-140.9909"/>
</g>
<!-- KfComponent -->
<g id="node10" class="node">
<title>KfComponent</title>
<polygon fill="#ffffb3" stroke="#000000" points="1165.0997,-122 1068.9003,-122 1068.9003,-86 1165.0997,-86 1165.0997,-122"/>
<text text-anchor="middle" x="1117" y="-99.8" font-family="Times,serif" font-size="14.00" fill="#000000">KfComponent</text>
</g>
<!-- KfComponent&#45;&gt;AppModule -->
<g id="edge10" class="edge">
<title>KfComponent&#45;&gt;AppModule</title>
<path fill="none" stroke="#000000" d="M1117,-122.1243C1117,-136.7832 1117,-155 1117,-155 1117,-155 1189.0193,-155 1189.0193,-155"/>
<polygon fill="#000000" stroke="#000000" points="1189.0193,-158.5001 1199.0193,-155 1189.0192,-151.5001 1189.0193,-158.5001"/>
</g>
<!-- PageNotFoundComponent -->
<g id="node11" class="node">
<title>PageNotFoundComponent</title>
<polygon fill="#ffffb3" stroke="#000000" points="1050.8243,-122 885.1757,-122 885.1757,-86 1050.8243,-86 1050.8243,-122"/>
<text text-anchor="middle" x="968" y="-99.8" font-family="Times,serif" font-size="14.00" fill="#000000">PageNotFoundComponent</text>
</g>
<!-- PageNotFoundComponent&#45;&gt;AppModule -->
<g id="edge11" class="edge">
<title>PageNotFoundComponent&#45;&gt;AppModule</title>
<path fill="none" stroke="#000000" d="M968,-122.0091C968,-138.0494 968,-159 968,-159 968,-159 1189.24,-159 1189.24,-159"/>
<polygon fill="#000000" stroke="#000000" points="1189.24,-162.5001 1199.24,-159 1189.24,-155.5001 1189.24,-162.5001"/>
</g>
<!-- PostCollaboratoryComponent -->
<g id="node12" class="node">
<title>PostCollaboratoryComponent</title>
<polygon fill="#ffffb3" stroke="#000000" points="867.7091,-122 684.2909,-122 684.2909,-86 867.7091,-86 867.7091,-122"/>
<text text-anchor="middle" x="776" y="-99.8" font-family="Times,serif" font-size="14.00" fill="#000000">PostCollaboratoryComponent</text>
</g>
<!-- PostCollaboratoryComponent&#45;&gt;AppModule -->
<g id="edge12" class="edge">
<title>PostCollaboratoryComponent&#45;&gt;AppModule</title>
<path fill="none" stroke="#000000" d="M776,-122.0225C776,-139.3734 776,-163 776,-163 776,-163 1189.3251,-163 1189.3251,-163"/>
<polygon fill="#000000" stroke="#000000" points="1189.3252,-166.5001 1199.3251,-163 1189.3251,-159.5001 1189.3252,-166.5001"/>
</g>
<!-- RbiComponent -->
<g id="node13" class="node">
<title>RbiComponent</title>
<polygon fill="#ffffb3" stroke="#000000" points="666.5606,-122 565.4394,-122 565.4394,-86 666.5606,-86 666.5606,-122"/>
<text text-anchor="middle" x="616" y="-99.8" font-family="Times,serif" font-size="14.00" fill="#000000">RbiComponent</text>
</g>
<!-- RbiComponent&#45;&gt;AppModule -->
<g id="edge13" class="edge">
<title>RbiComponent&#45;&gt;AppModule</title>
<path fill="none" stroke="#000000" d="M616,-122.2222C616,-140.8285 616,-167 616,-167 616,-167 1189.0215,-167 1189.0215,-167"/>
<polygon fill="#000000" stroke="#000000" points="1189.0215,-170.5001 1199.0215,-167 1189.0215,-163.5001 1189.0215,-170.5001"/>
</g>
<!-- SearchBarComponent -->
<g id="node14" class="node">
<title>SearchBarComponent</title>
<polygon fill="#ffffb3" stroke="#000000" points="546.6317,-122 407.3683,-122 407.3683,-86 546.6317,-86 546.6317,-122"/>
<text text-anchor="middle" x="477" y="-99.8" font-family="Times,serif" font-size="14.00" fill="#000000">SearchBarComponent</text>
</g>
<!-- SearchBarComponent&#45;&gt;AppModule -->
<g id="edge14" class="edge">
<title>SearchBarComponent&#45;&gt;AppModule</title>
<path fill="none" stroke="#000000" d="M477,-122.308C477,-142.1455 477,-171 477,-171 477,-171 1189.109,-171 1189.109,-171"/>
<polygon fill="#000000" stroke="#000000" points="1189.1091,-174.5001 1199.109,-171 1189.109,-167.5001 1189.1091,-174.5001"/>
</g>
<!-- AppComponent  -->
<g id="node18" class="node">
<title>AppComponent </title>
<polygon fill="#80b1d3" stroke="#000000" points="1295.439,-252 1186.561,-252 1186.561,-216 1295.439,-216 1295.439,-252"/>
<text text-anchor="middle" x="1241" y="-229.8" font-family="Times,serif" font-size="14.00" fill="#000000">AppComponent </text>
</g>
<!-- AppModule&#45;&gt;AppComponent  -->
<g id="edge17" class="edge">
<title>AppModule&#45;&gt;AppComponent </title>
<path fill="none" stroke="#000000" stroke-dasharray="1,5" d="M1241,-187.1061C1241,-187.1061 1241,-205.991 1241,-205.991"/>
<polygon fill="#000000" stroke="#000000" points="1237.5001,-205.9909 1241,-215.991 1244.5001,-205.991 1237.5001,-205.9909"/>
</g>
<!-- AccountModule -->
<g id="node16" class="node">
<title>AccountModule</title>
<polygon fill="#8dd3c7" stroke="#000000" points="383.4762,-122 380.4762,-126 359.4762,-126 356.4762,-122 276.5238,-122 276.5238,-86 383.4762,-86 383.4762,-122"/>
<text text-anchor="middle" x="330" y="-99.8" font-family="Times,serif" font-size="14.00" fill="#000000">AccountModule</text>
</g>
<!-- AccountModule&#45;&gt;AppModule -->
<g id="edge15" class="edge">
<title>AccountModule&#45;&gt;AppModule</title>
<path fill="none" stroke="#000000" d="M330,-122.2843C330,-143.3211 330,-175 330,-175 330,-175 1189.1888,-175 1189.1888,-175"/>
<polygon fill="#000000" stroke="#000000" points="1189.1888,-178.5001 1199.1888,-175 1189.1888,-171.5001 1189.1888,-178.5001"/>
</g>
<!-- AppRoutingModule -->
<g id="node17" class="node">
<title>AppRoutingModule</title>
<polygon fill="#8dd3c7" stroke="#000000" points="258.2744,-122 255.2744,-126 234.2744,-126 231.2744,-122 129.7256,-122 129.7256,-86 258.2744,-86 258.2744,-122"/>
<text text-anchor="middle" x="194" y="-99.8" font-family="Times,serif" font-size="14.00" fill="#000000">AppRoutingModule</text>
</g>
<!-- AppRoutingModule&#45;&gt;AppModule -->
<g id="edge16" class="edge">
<title>AppRoutingModule&#45;&gt;AppModule</title>
<path fill="none" stroke="#000000" d="M194,-122.1554C194,-144.3519 194,-179 194,-179 194,-179 1189.3103,-179 1189.3103,-179"/>
<polygon fill="#000000" stroke="#000000" points="1189.3103,-182.5001 1199.3103,-179 1189.3102,-175.5001 1189.3103,-182.5001"/>
</g>
<!-- Storage -->
<g id="node19" class="node">
<title>Storage</title>
<ellipse fill="#fdb462" stroke="#000000" cx="65" cy="-104" rx="40.5673" ry="18"/>
<text text-anchor="middle" x="65" y="-99.8" font-family="Times,serif" font-size="14.00" fill="#000000">Storage</text>
</g>
<!-- Storage&#45;&gt;AppModule -->
<g id="edge18" class="edge">
<title>Storage&#45;&gt;AppModule</title>
<path fill="none" stroke="#000000" d="M65,-122.3228C65,-145.6602 65,-183 65,-183 65,-183 1189.1455,-183 1189.1455,-183"/>
<polygon fill="#000000" stroke="#000000" points="1189.1456,-186.5001 1199.1455,-183 1189.1455,-179.5001 1189.1456,-186.5001"/>
</g>
</g>
</svg>
