<?xml version="1.0" encoding="UTF-8" standalone="no"?>
<!DOCTYPE svg PUBLIC "-//W3C//DTD SVG 1.1//EN"
 "http://www.w3.org/Graphics/SVG/1.1/DTD/svg11.dtd">
<!-- Generated by graphviz version 2.40.1 (20161225.0304)
 -->
<!-- Title: dependencies Pages: 1 -->
<svg width="2822pt" height="352pt"
 viewBox="0.00 0.00 2822.00 352.00" xmlns="http://www.w3.org/2000/svg" xmlns:xlink="http://www.w3.org/1999/xlink">
<g id="graph0" class="graph" transform="scale(1 1) rotate(0) translate(4 348)">
<title>dependencies</title>
<polygon fill="#ffffff" stroke="transparent" points="-4,4 -4,-348 2818,-348 2818,4 -4,4"/>
<text text-anchor="start" x="1386.0091" y="-42.4" font-family="sans-serif" font-weight="bold" font-size="14.00" fill="#000000">Legend</text>
<polygon fill="#ffffb3" stroke="transparent" points="1173,-10 1173,-30 1193,-30 1193,-10 1173,-10"/>
<text text-anchor="start" x="1196.629" y="-15.4" font-family="sans-serif" font-size="14.00" fill="#000000"> &#160;Declarations</text>
<polygon fill="#8dd3c7" stroke="transparent" points="1286,-10 1286,-30 1306,-30 1306,-10 1286,-10"/>
<text text-anchor="start" x="1309.7251" y="-15.4" font-family="sans-serif" font-size="14.00" fill="#000000"> &#160;Module</text>
<polygon fill="#80b1d3" stroke="transparent" points="1372,-10 1372,-30 1392,-30 1392,-10 1372,-10"/>
<text text-anchor="start" x="1395.7812" y="-15.4" font-family="sans-serif" font-size="14.00" fill="#000000"> &#160;Bootstrap</text>
<polygon fill="#fdb462" stroke="transparent" points="1469,-10 1469,-30 1489,-30 1489,-10 1469,-10"/>
<text text-anchor="start" x="1492.6732" y="-15.4" font-family="sans-serif" font-size="14.00" fill="#000000"> &#160;Providers</text>
<polygon fill="#fb8072" stroke="transparent" points="1565,-10 1565,-30 1585,-30 1585,-10 1565,-10"/>
<text text-anchor="start" x="1588.7258" y="-15.4" font-family="sans-serif" font-size="14.00" fill="#000000"> &#160;Exports</text>
<g id="clust1" class="cluster">
<title>cluster_AccountModule</title>
<polygon fill="none" stroke="#000000" stroke-dasharray="1,5" points="8,-70 8,-198 294,-198 294,-70 8,-70"/>
</g>
<g id="clust2" class="cluster">
<title>cluster_AccountModule_declarations</title>
<polygon fill="none" stroke="#000000" points="16,-78 16,-130 286,-130 286,-78 16,-78"/>
</g>
<g id="clust9" class="cluster">
<title>cluster_AppModule</title>
<polygon fill="none" stroke="#000000" stroke-dasharray="1,5" points="302,-138 302,-336 2806,-336 2806,-138 302,-138"/>
</g>
<g id="clust10" class="cluster">
<title>cluster_AppModule_declarations</title>
<polygon fill="none" stroke="#000000" points="568,-146 568,-198 2798,-198 2798,-146 568,-146"/>
</g>
<g id="clust25" class="cluster">
<title>cluster_AppModule_imports</title>
<polygon fill="none" stroke="#000000" points="416,-146 416,-198 560,-198 560,-146 416,-146"/>
</g>
<g id="clust27" class="cluster">
<title>cluster_AppModule_bootstrap</title>
<polygon fill="none" stroke="#000000" points="1348,-276 1348,-328 1472,-328 1472,-276 1348,-276"/>
</g>
<g id="clust28" class="cluster">
<title>cluster_AppModule_providers</title>
<polygon fill="none" stroke="#000000" points="310,-146 310,-198 408,-198 408,-146 310,-146"/>
</g>
<!-- LoginComponent -->
<g id="node1" class="node">
<title>LoginComponent</title>
<polygon fill="#ffffb3" stroke="#000000" points="278.2758,-122 163.7242,-122 163.7242,-86 278.2758,-86 278.2758,-122"/>
<text text-anchor="middle" x="221" y="-99.8" font-family="Times,serif" font-size="14.00" fill="#000000">LoginComponent</text>
</g>
<!-- AccountModule -->
<g id="node3" class="node">
<title>AccountModule</title>
<polygon fill="#8dd3c7" stroke="#000000" points="274.4762,-190 271.4762,-194 250.4762,-194 247.4762,-190 167.5238,-190 167.5238,-154 274.4762,-154 274.4762,-190"/>
<text text-anchor="middle" x="221" y="-167.8" font-family="Times,serif" font-size="14.00" fill="#000000">AccountModule</text>
</g>
<!-- LoginComponent&#45;&gt;AccountModule -->
<g id="edge1" class="edge">
<title>LoginComponent&#45;&gt;AccountModule</title>
<path fill="none" stroke="#000000" d="M221,-122.2228C221,-122.2228 221,-143.7269 221,-143.7269"/>
<polygon fill="#000000" stroke="#000000" points="217.5001,-143.7269 221,-153.7269 224.5001,-143.727 217.5001,-143.7269"/>
</g>
<!-- SignupComponent -->
<g id="node2" class="node">
<title>SignupComponent</title>
<polygon fill="#ffffb3" stroke="#000000" points="145.5056,-122 24.4944,-122 24.4944,-86 145.5056,-86 145.5056,-122"/>
<text text-anchor="middle" x="85" y="-99.8" font-family="Times,serif" font-size="14.00" fill="#000000">SignupComponent</text>
</g>
<!-- SignupComponent&#45;&gt;AccountModule -->
<g id="edge2" class="edge">
<title>SignupComponent&#45;&gt;AccountModule</title>
<path fill="none" stroke="#000000" d="M85,-122.2228C85,-142.3652 85,-172 85,-172 85,-172 157.2492,-172 157.2492,-172"/>
<polygon fill="#000000" stroke="#000000" points="157.2492,-175.5001 167.2492,-172 157.2492,-168.5001 157.2492,-175.5001"/>
</g>
<!-- AppModule -->
<g id="node18" class="node">
<title>AppModule</title>
<polygon fill="#8dd3c7" stroke="#000000" points="1451.6571,-255 1448.6571,-259 1427.6571,-259 1424.6571,-255 1368.3429,-255 1368.3429,-219 1451.6571,-219 1451.6571,-255"/>
<text text-anchor="middle" x="1410" y="-232.8" font-family="Times,serif" font-size="14.00" fill="#000000">AppModule</text>
</g>
<!-- AccountModule&#45;&gt;AppModule -->
<g id="edge17" class="edge">
<title>AccountModule&#45;&gt;AppModule</title>
<path fill="none" stroke="#000000" d="M221,-190.3228C221,-213.6602 221,-251 221,-251 221,-251 1358.0321,-251 1358.0321,-251"/>
<polygon fill="#000000" stroke="#000000" points="1358.0321,-254.5001 1368.0321,-251 1358.0321,-247.5001 1358.0321,-254.5001"/>
</g>
<!-- AppComponent -->
<g id="node4" class="node">
<title>AppComponent</title>
<polygon fill="#ffffb3" stroke="#000000" points="2789.9399,-190 2684.0601,-190 2684.0601,-154 2789.9399,-154 2789.9399,-190"/>
<text text-anchor="middle" x="2737" y="-167.8" font-family="Times,serif" font-size="14.00" fill="#000000">AppComponent</text>
</g>
<!-- AppComponent&#45;&gt;AppModule -->
<g id="edge3" class="edge">
<title>AppComponent&#45;&gt;AppModule</title>
<path fill="none" stroke="#000000" d="M2737,-190.3228C2737,-213.6602 2737,-251 2737,-251 2737,-251 1461.9062,-251 1461.9062,-251"/>
<polygon fill="#000000" stroke="#000000" points="1461.9062,-247.5001 1451.9062,-251 1461.9061,-254.5001 1461.9062,-247.5001"/>
</g>
<!-- CollaboratoryComponent -->
<g id="node5" class="node">
<title>CollaboratoryComponent</title>
<polygon fill="#ffffb3" stroke="#000000" points="2666.5912,-190 2507.4088,-190 2507.4088,-154 2666.5912,-154 2666.5912,-190"/>
<text text-anchor="middle" x="2587" y="-167.8" font-family="Times,serif" font-size="14.00" fill="#000000">CollaboratoryComponent</text>
</g>
<!-- CollaboratoryComponent&#45;&gt;AppModule -->
<g id="edge4" class="edge">
<title>CollaboratoryComponent&#45;&gt;AppModule</title>
<path fill="none" stroke="#000000" d="M2587,-190.1554C2587,-212.3519 2587,-247 2587,-247 2587,-247 1461.8901,-247 1461.8901,-247"/>
<polygon fill="#000000" stroke="#000000" points="1461.8901,-243.5001 1451.8901,-247 1461.89,-250.5001 1461.8901,-243.5001"/>
</g>
<!-- CollaboratoryDetailComponent -->
<g id="node6" class="node">
<title>CollaboratoryDetailComponent</title>
<polygon fill="#ffffb3" stroke="#000000" points="2489.799,-190 2296.201,-190 2296.201,-154 2489.799,-154 2489.799,-190"/>
<text text-anchor="middle" x="2393" y="-167.8" font-family="Times,serif" font-size="14.00" fill="#000000">CollaboratoryDetailComponent</text>
</g>
<!-- CollaboratoryDetailComponent&#45;&gt;AppModule -->
<g id="edge5" class="edge">
<title>CollaboratoryDetailComponent&#45;&gt;AppModule</title>
<path fill="none" stroke="#000000" d="M2393,-190.2843C2393,-211.3211 2393,-243 2393,-243 2393,-243 1461.9238,-243 1461.9238,-243"/>
<polygon fill="#000000" stroke="#000000" points="1461.9239,-239.5001 1451.9238,-243 1461.9238,-246.5001 1461.9239,-239.5001"/>
</g>
<!-- ContributorsComponent -->
<g id="node7" class="node">
<title>ContributorsComponent</title>
<polygon fill="#ffffb3" stroke="#000000" points="2278.1066,-190 2125.8934,-190 2125.8934,-154 2278.1066,-154 2278.1066,-190"/>
<text text-anchor="middle" x="2202" y="-167.8" font-family="Times,serif" font-size="14.00" fill="#000000">ContributorsComponent</text>
</g>
<!-- ContributorsComponent&#45;&gt;AppModule -->
<g id="edge6" class="edge">
<title>ContributorsComponent&#45;&gt;AppModule</title>
<path fill="none" stroke="#000000" d="M2202,-190.308C2202,-210.1455 2202,-239 2202,-239 2202,-239 1461.7438,-239 1461.7438,-239"/>
<polygon fill="#000000" stroke="#000000" points="1461.7438,-235.5001 1451.7438,-239 1461.7438,-242.5001 1461.7438,-235.5001"/>
</g>
<!-- CreateChallengeComponent -->
<g id="node8" class="node">
<title>CreateChallengeComponent</title>
<polygon fill="#ffffb3" stroke="#000000" points="2108.126,-190 1933.874,-190 1933.874,-154 2108.126,-154 2108.126,-190"/>
<text text-anchor="middle" x="2021" y="-167.8" font-family="Times,serif" font-size="14.00" fill="#000000">CreateChallengeComponent</text>
</g>
<!-- CreateChallengeComponent&#45;&gt;AppModule -->
<g id="edge7" class="edge">
<title>CreateChallengeComponent&#45;&gt;AppModule</title>
<path fill="none" stroke="#000000" d="M2021,-190.2222C2021,-208.8285 2021,-235 2021,-235 2021,-235 1461.9965,-235 1461.9965,-235"/>
<polygon fill="#000000" stroke="#000000" points="1461.9965,-231.5001 1451.9965,-235 1461.9965,-238.5001 1461.9965,-231.5001"/>
</g>
<!-- FooterComponent -->
<g id="node9" class="node">
<title>FooterComponent</title>
<polygon fill="#ffffb3" stroke="#000000" points="1915.8809,-190 1798.1191,-190 1798.1191,-154 1915.8809,-154 1915.8809,-190"/>
<text text-anchor="middle" x="1857" y="-167.8" font-family="Times,serif" font-size="14.00" fill="#000000">FooterComponent</text>
</g>
<!-- FooterComponent&#45;&gt;AppModule -->
<g id="edge8" class="edge">
<title>FooterComponent&#45;&gt;AppModule</title>
<path fill="none" stroke="#000000" d="M1857,-190.0225C1857,-207.3734 1857,-231 1857,-231 1857,-231 1462.0527,-231 1462.0527,-231"/>
<polygon fill="#000000" stroke="#000000" points="1462.0527,-227.5001 1452.0527,-231 1462.0526,-234.5001 1462.0527,-227.5001"/>
</g>
<!-- HeaderComponent -->
<g id="node10" class="node">
<title>HeaderComponent</title>
<polygon fill="#ffffb3" stroke="#000000" points="1779.7437,-190 1658.2563,-190 1658.2563,-154 1779.7437,-154 1779.7437,-190"/>
<text text-anchor="middle" x="1719" y="-167.8" font-family="Times,serif" font-size="14.00" fill="#000000">HeaderComponent</text>
</g>
<!-- HeaderComponent&#45;&gt;AppModule -->
<g id="edge9" class="edge">
<title>HeaderComponent&#45;&gt;AppModule</title>
<path fill="none" stroke="#000000" d="M1719,-190.0091C1719,-206.0494 1719,-227 1719,-227 1719,-227 1461.6731,-227 1461.6731,-227"/>
<polygon fill="#000000" stroke="#000000" points="1461.6731,-223.5001 1451.6731,-227 1461.6731,-230.5001 1461.6731,-223.5001"/>
</g>
<!-- HeaderLoginComponent -->
<g id="node11" class="node">
<title>HeaderLoginComponent</title>
<polygon fill="#ffffb3" stroke="#000000" points="1640.6867,-190 1485.3133,-190 1485.3133,-154 1640.6867,-154 1640.6867,-190"/>
<text text-anchor="middle" x="1563" y="-167.8" font-family="Times,serif" font-size="14.00" fill="#000000">HeaderLoginComponent</text>
</g>
<!-- HeaderLoginComponent&#45;&gt;AppModule -->
<g id="edge10" class="edge">
<title>HeaderLoginComponent&#45;&gt;AppModule</title>
<path fill="none" stroke="#000000" d="M1563,-190.1243C1563,-204.7832 1563,-223 1563,-223 1563,-223 1461.8079,-223 1461.8079,-223"/>
<polygon fill="#000000" stroke="#000000" points="1461.808,-219.5001 1451.8079,-223 1461.8079,-226.5001 1461.808,-219.5001"/>
</g>
<!-- HomeComponent -->
<g id="node12" class="node">
<title>HomeComponent</title>
<polygon fill="#ffffb3" stroke="#000000" points="1467.5451,-190 1352.4549,-190 1352.4549,-154 1467.5451,-154 1467.5451,-190"/>
<text text-anchor="middle" x="1410" y="-167.8" font-family="Times,serif" font-size="14.00" fill="#000000">HomeComponent</text>
</g>
<!-- HomeComponent&#45;&gt;AppModule -->
<g id="edge11" class="edge">
<title>HomeComponent&#45;&gt;AppModule</title>
<path fill="none" stroke="#000000" d="M1410,-190.1061C1410,-190.1061 1410,-208.991 1410,-208.991"/>
<polygon fill="#000000" stroke="#000000" points="1406.5001,-208.9909 1410,-218.991 1413.5001,-208.991 1406.5001,-208.9909"/>
</g>
<!-- KfComponent -->
<g id="node13" class="node">
<title>KfComponent</title>
<polygon fill="#ffffb3" stroke="#000000" points="1334.0997,-190 1237.9003,-190 1237.9003,-154 1334.0997,-154 1334.0997,-190"/>
<text text-anchor="middle" x="1286" y="-167.8" font-family="Times,serif" font-size="14.00" fill="#000000">KfComponent</text>
</g>
<!-- KfComponent&#45;&gt;AppModule -->
<g id="edge12" class="edge">
<title>KfComponent&#45;&gt;AppModule</title>
<path fill="none" stroke="#000000" d="M1286,-190.1243C1286,-204.7832 1286,-223 1286,-223 1286,-223 1358.0193,-223 1358.0193,-223"/>
<polygon fill="#000000" stroke="#000000" points="1358.0193,-226.5001 1368.0193,-223 1358.0192,-219.5001 1358.0193,-226.5001"/>
</g>
<!-- PageNotFoundComponent -->
<g id="node14" class="node">
<title>PageNotFoundComponent</title>
<polygon fill="#ffffb3" stroke="#000000" points="1219.8243,-190 1054.1757,-190 1054.1757,-154 1219.8243,-154 1219.8243,-190"/>
<text text-anchor="middle" x="1137" y="-167.8" font-family="Times,serif" font-size="14.00" fill="#000000">PageNotFoundComponent</text>
</g>
<!-- PageNotFoundComponent&#45;&gt;AppModule -->
<g id="edge13" class="edge">
<title>PageNotFoundComponent&#45;&gt;AppModule</title>
<path fill="none" stroke="#000000" d="M1137,-190.0091C1137,-206.0494 1137,-227 1137,-227 1137,-227 1358.24,-227 1358.24,-227"/>
<polygon fill="#000000" stroke="#000000" points="1358.24,-230.5001 1368.24,-227 1358.24,-223.5001 1358.24,-230.5001"/>
</g>
<!-- PostCollaboratoryComponent -->
<g id="node15" class="node">
<title>PostCollaboratoryComponent</title>
<polygon fill="#ffffb3" stroke="#000000" points="1036.7091,-190 853.2909,-190 853.2909,-154 1036.7091,-154 1036.7091,-190"/>
<text text-anchor="middle" x="945" y="-167.8" font-family="Times,serif" font-size="14.00" fill="#000000">PostCollaboratoryComponent</text>
</g>
<!-- PostCollaboratoryComponent&#45;&gt;AppModule -->
<g id="edge14" class="edge">
<title>PostCollaboratoryComponent&#45;&gt;AppModule</title>
<path fill="none" stroke="#000000" d="M945,-190.0225C945,-207.3734 945,-231 945,-231 945,-231 1358.3251,-231 1358.3251,-231"/>
<polygon fill="#000000" stroke="#000000" points="1358.3252,-234.5001 1368.3251,-231 1358.3251,-227.5001 1358.3252,-234.5001"/>
</g>
<!-- RbiComponent -->
<g id="node16" class="node">
<title>RbiComponent</title>
<polygon fill="#ffffb3" stroke="#000000" points="835.5606,-190 734.4394,-190 734.4394,-154 835.5606,-154 835.5606,-190"/>
<text text-anchor="middle" x="785" y="-167.8" font-family="Times,serif" font-size="14.00" fill="#000000">RbiComponent</text>
</g>
<!-- RbiComponent&#45;&gt;AppModule -->
<g id="edge15" class="edge">
<title>RbiComponent&#45;&gt;AppModule</title>
<path fill="none" stroke="#000000" d="M785,-190.2222C785,-208.8285 785,-235 785,-235 785,-235 1358.0215,-235 1358.0215,-235"/>
<polygon fill="#000000" stroke="#000000" points="1358.0215,-238.5001 1368.0215,-235 1358.0215,-231.5001 1358.0215,-238.5001"/>
</g>
<!-- SearchBarComponent -->
<g id="node17" class="node">
<title>SearchBarComponent</title>
<polygon fill="#ffffb3" stroke="#000000" points="715.6317,-190 576.3683,-190 576.3683,-154 715.6317,-154 715.6317,-190"/>
<text text-anchor="middle" x="646" y="-167.8" font-family="Times,serif" font-size="14.00" fill="#000000">SearchBarComponent</text>
</g>
<!-- SearchBarComponent&#45;&gt;AppModule -->
<g id="edge16" class="edge">
<title>SearchBarComponent&#45;&gt;AppModule</title>
<path fill="none" stroke="#000000" d="M646,-190.308C646,-210.1455 646,-239 646,-239 646,-239 1358.109,-239 1358.109,-239"/>
<polygon fill="#000000" stroke="#000000" points="1358.1091,-242.5001 1368.109,-239 1358.109,-235.5001 1358.1091,-242.5001"/>
</g>
<!-- AppComponent  -->
<g id="node20" class="node">
<title>AppComponent </title>
<polygon fill="#80b1d3" stroke="#000000" points="1464.439,-320 1355.561,-320 1355.561,-284 1464.439,-284 1464.439,-320"/>
<text text-anchor="middle" x="1410" y="-297.8" font-family="Times,serif" font-size="14.00" fill="#000000">AppComponent </text>
</g>
<!-- AppModule&#45;&gt;AppComponent  -->
<g id="edge19" class="edge">
<title>AppModule&#45;&gt;AppComponent </title>
<path fill="none" stroke="#000000" stroke-dasharray="1,5" d="M1410,-255.1061C1410,-255.1061 1410,-273.991 1410,-273.991"/>
<polygon fill="#000000" stroke="#000000" points="1406.5001,-273.9909 1410,-283.991 1413.5001,-273.991 1406.5001,-273.9909"/>
</g>
<!-- AppRoutingModule -->
<g id="node19" class="node">
<title>AppRoutingModule</title>
<polygon fill="#8dd3c7" stroke="#000000" points="552.2744,-190 549.2744,-194 528.2744,-194 525.2744,-190 423.7256,-190 423.7256,-154 552.2744,-154 552.2744,-190"/>
<text text-anchor="middle" x="488" y="-167.8" font-family="Times,serif" font-size="14.00" fill="#000000">AppRoutingModule</text>
</g>
<!-- AppRoutingModule&#45;&gt;AppModule -->
<g id="edge18" class="edge">
<title>AppRoutingModule&#45;&gt;AppModule</title>
<path fill="none" stroke="#000000" d="M488,-190.2843C488,-211.3211 488,-243 488,-243 488,-243 1358.2906,-243 1358.2906,-243"/>
<polygon fill="#000000" stroke="#000000" points="1358.2906,-246.5001 1368.2906,-243 1358.2905,-239.5001 1358.2906,-246.5001"/>
</g>
<!-- Storage -->
<g id="node21" class="node">
<title>Storage</title>
<ellipse fill="#fdb462" stroke="#000000" cx="359" cy="-172" rx="40.5673" ry="18"/>
<text text-anchor="middle" x="359" y="-167.8" font-family="Times,serif" font-size="14.00" fill="#000000">Storage</text>
</g>
<!-- Storage&#45;&gt;AppModule -->
<g id="edge20" class="edge">
<title>Storage&#45;&gt;AppModule</title>
<path fill="none" stroke="#000000" d="M359,-190.1554C359,-212.3519 359,-247 359,-247 359,-247 1358.151,-247 1358.151,-247"/>
<polygon fill="#000000" stroke="#000000" points="1358.151,-250.5001 1368.151,-247 1358.151,-243.5001 1358.151,-250.5001"/>
</g>
</g>
</svg>
